<svg width="47" height="20" viewBox="0 0 47 20" fill="none" xmlns="http://www.w3.org/2000/svg">
<g clip-path="url(#clip0_4007_78733)">
<path d="M8.58779 2.74642C8.03694 3.39765 7.15559 3.9113 6.27424 3.83792C6.16407 2.95738 6.59557 2.02181 7.10051 1.44396C7.65135 0.774388 8.61533 0.297431 9.39569 0.260742C9.4875 1.17797 9.12945 2.07685 8.58779 2.74642ZM9.38651 4.01219C8.11039 3.93881 7.01788 4.7368 6.41195 4.7368C5.79684 4.7368 4.86959 4.04888 3.85971 4.06722C2.54686 4.08557 1.32582 4.82852 0.655628 6.01174C-0.721483 8.37818 0.297579 11.882 1.62879 13.8082C2.28062 14.7621 3.06098 15.8077 4.08922 15.771C5.06238 15.7343 5.44797 15.1381 6.62311 15.1381C7.80742 15.1381 8.14711 15.771 9.17535 15.7527C10.2403 15.7343 10.9105 14.7988 11.5623 13.8448C12.306 12.7625 12.609 11.7077 12.6273 11.6527C12.609 11.6343 10.5708 10.8547 10.5525 8.50659C10.5341 6.54373 12.1591 5.60816 12.2325 5.55313C11.3145 4.19564 9.88227 4.04888 9.38651 4.01219ZM16.7586 1.35224V15.6518H18.9804V10.763H22.0559C24.8652 10.763 26.8391 8.83679 26.8391 6.04843C26.8391 3.26007 24.902 1.35224 22.1294 1.35224H16.7586ZM18.9804 3.22338H21.5418C23.4698 3.22338 24.5715 4.25067 24.5715 6.0576C24.5715 7.86453 23.4698 8.901 21.5326 8.901H18.9804V3.22338ZM30.897 15.7618C32.2925 15.7618 33.5869 15.0556 34.1745 13.9366H34.2204V15.6518H36.2769V8.53411C36.2769 6.47035 34.6244 5.14038 32.0813 5.14038C29.7218 5.14038 27.9775 6.4887 27.9132 8.34149H29.9146C30.0799 7.46096 30.897 6.8831 32.017 6.8831C33.3758 6.8831 34.1378 7.51599 34.1378 8.68086V9.46968L31.3652 9.63478C28.7854 9.79071 27.3899 10.8455 27.3899 12.68C27.3899 14.5328 28.8313 15.7618 30.897 15.7618ZM31.4937 14.065C30.3094 14.065 29.5566 13.4963 29.5566 12.6249C29.5566 11.7261 30.2819 11.2032 31.6682 11.1207L34.1378 10.9648V11.7719C34.1378 13.1111 32.9994 14.065 31.4937 14.065ZM39.0219 19.5408C41.1886 19.5408 42.2077 18.7153 43.0982 16.2113L47 5.27796H44.7415L42.125 13.7256H42.0791L39.4626 5.27796H37.1399L40.904 15.6885L40.702 16.3213C40.3623 17.3945 39.8115 17.8073 38.8291 17.8073C38.6547 17.8073 38.315 17.7889 38.1773 17.7706V19.4858C38.3058 19.5225 38.8567 19.5408 39.0219 19.5408Z" fill="#F5ECE9"/>
</g>
<defs>
<clipPath id="clip0_4007_78733">
<rect width="47" height="20" fill="white"/>
</clipPath>
</defs>
</svg>
