<svg width="24" height="24" viewBox="0 0 24 24" fill="none" xmlns="http://www.w3.org/2000/svg">
<g clip-path="url(#clip0_2868_51584)">
<path d="M10.0913 0.0937462C9.99288 0.154684 9.73975 0.482809 9.36006 1.05L8.7835 1.91718L7.90225 1.33125C7.03507 0.759373 7.021 0.749996 6.7585 0.749996C6.46319 0.749996 6.24288 0.853123 6.11163 1.05468C6.06944 1.12031 5.91944 1.63125 5.77882 2.18906C5.63819 2.75156 5.521 3.21562 5.51163 3.22031C5.50694 3.225 5.16944 3.00937 4.76163 2.74219C4.03975 2.26406 4.01631 2.25 3.7585 2.25C3.46319 2.25 3.24288 2.35312 3.11163 2.55469C3.06944 2.62031 2.91944 3.13125 2.77882 3.68906C2.63819 4.25156 2.521 4.71562 2.51163 4.72031C2.50694 4.725 2.16944 4.50937 1.76163 4.24219C1.03975 3.76406 1.01632 3.75 0.758503 3.75C0.44444 3.75 0.23819 3.85781 0.0881904 4.0875C-0.000872129 4.22812 -0.00555963 4.29375 0.0178779 4.78125C0.0460029 5.46094 0.233503 6.91406 0.472565 8.36719C1.26944 13.1344 2.53507 17.0578 4.12413 19.6875C5.01007 21.1547 5.6335 21.7641 6.70225 22.2047C7.22257 22.4203 7.68194 22.5 8.39913 22.5C9.3835 22.5 9.90382 22.3078 10.4804 21.7312C11.0241 21.1922 11.2491 20.6344 11.2491 19.8375C11.2491 18.7078 10.5694 17.7703 9.4585 17.3625C9.346 17.3203 8.98975 17.2687 8.65694 17.25C8.20694 17.2172 8.01944 17.1891 7.90694 17.1234C7.42881 16.8422 7.42413 16.1578 7.89756 15.8859C7.97725 15.8391 9.31319 15.3141 10.8741 14.7141C12.4351 14.1187 13.7569 13.5937 13.8132 13.5516C13.9538 13.4531 14.1085 13.1344 14.1085 12.9469C14.1085 12.8625 14.0007 12.5156 13.8694 12.1734C12.7069 9.17812 11.7741 5.19375 11.3429 1.35937C11.2351 0.417185 11.1929 0.285934 10.921 0.107809C10.7148 -0.0328159 10.3069 -0.0421906 10.0913 0.0937462ZM8.65225 6.91406C9.046 7.17187 9.05069 7.82812 8.65225 8.08594C8.59132 8.12812 7.66788 8.5125 6.59913 8.93906C4.55538 9.75937 4.44288 9.7875 4.15694 9.62344C3.70694 9.35625 3.66944 8.69062 4.096 8.41406C4.2085 8.33906 7.33975 7.06875 7.91163 6.86719C8.23038 6.75 8.42725 6.76406 8.65225 6.91406ZM9.40225 9.91406C9.796 10.1719 9.80069 10.8281 9.40225 11.0859C9.34132 11.1281 8.42256 11.5078 7.36319 11.9344C5.30069 12.7594 5.1835 12.7922 4.8835 12.6094C4.45225 12.3469 4.42882 11.6859 4.846 11.4141C4.9585 11.3391 8.08975 10.0687 8.66163 9.86719C8.98038 9.75 9.17725 9.76406 9.40225 9.91406Z" fill="#FF8A65"/>
<path d="M18.3368 1.59259C18.0556 1.76602 17.9993 1.92071 17.9993 2.55353V3.11603L17.704 3.25196C17.3384 3.4254 16.8884 3.86603 16.7243 4.21759C16.4759 4.7379 16.4478 5.36603 16.64 5.92384C16.7337 6.20509 16.9868 6.61759 17.165 6.78165C17.3665 6.96915 17.7978 7.19884 18.4634 7.4754C19.1853 7.77071 19.3728 7.91603 19.4337 8.22071C19.4712 8.42228 19.3493 8.68946 19.1572 8.83009C19.0447 8.91446 18.9556 8.92853 18.5431 8.92853H18.0603L17.7978 8.7504C17.3665 8.45509 16.9962 8.46915 16.6868 8.7879C16.5462 8.93321 16.5228 8.98946 16.5087 9.25665C16.49 9.5004 16.5087 9.58477 16.5837 9.71134C16.7572 9.9879 17.3618 10.3535 17.7697 10.4285L17.9384 10.4613L17.9618 10.9676C17.99 11.5395 18.0603 11.7129 18.3275 11.891C18.5337 12.0316 18.9415 12.041 19.1618 11.9051C19.4431 11.7316 19.4993 11.577 19.4993 10.9441V10.3816L19.7947 10.2457C20.1603 10.0723 20.6103 9.63165 20.7743 9.28009C21.1118 8.57228 21.0415 7.71915 20.5962 7.04884C20.3103 6.62228 19.9822 6.41134 18.9228 5.9754C18.5243 5.81134 18.3322 5.70821 18.2337 5.59571C17.9384 5.25821 18.0181 4.85509 18.4212 4.64884C18.604 4.55509 18.6884 4.54103 19.0353 4.55509C19.4197 4.56915 19.4525 4.57853 19.715 4.75665C19.954 4.92071 20.015 4.94415 20.254 4.94415C20.5587 4.94415 20.7134 4.85978 20.8962 4.59259C21.0322 4.39103 21.0415 3.9879 20.9056 3.77696C20.7462 3.51446 20.2775 3.22384 19.804 3.09259L19.5228 3.0129L19.4993 2.47384C19.4712 1.88321 19.4243 1.75196 19.1572 1.59259C18.9509 1.46603 18.5431 1.46603 18.3368 1.59259Z" fill="#F5ECE9"/>
<path d="M17.5313 13.7055C16.1766 14.2258 14.2266 14.9758 13.1953 15.3695C12.0563 15.8055 11.2875 16.1242 11.2406 16.1805C11.1938 16.232 11.1563 16.3492 11.1563 16.4477C11.1563 16.593 11.1938 16.6586 11.4188 16.8742C12.0141 17.4602 12.4359 18.1961 12.6141 18.9649C12.6984 19.3445 12.7125 19.4992 12.6891 20.0289C12.6609 20.7602 12.5625 21.1586 12.2531 21.7492C11.9016 22.4336 11.2781 23.0899 10.6734 23.4133C10.35 23.5867 10.2656 23.6664 10.2656 23.7883C10.2656 23.9758 10.3734 24.0133 10.8422 23.9899C11.1563 23.9711 11.3813 23.9289 11.6719 23.8258C11.8922 23.7508 13.9406 22.9117 16.2281 21.9695C18.5156 21.0227 20.4094 20.2492 20.4375 20.2492C20.4656 20.2492 20.5875 20.1977 20.7094 20.1367C20.8313 20.0758 21.3516 19.8508 21.8672 19.6399C22.3828 19.4289 22.8422 19.2274 22.8891 19.1945C23.0531 19.0774 23.4703 18.5102 23.6344 18.1727C23.8969 17.643 24 17.1883 24 16.5508C24 15.407 23.6203 14.5164 22.8094 13.7477C22.1203 13.0867 21.2859 12.7492 20.3906 12.7539L19.9922 12.7586L17.5313 13.7055Z" fill="#FF8A65"/>
</g>
<defs>
<clipPath id="clip0_2868_51584">
<rect width="24" height="24" fill="white"/>
</clipPath>
</defs>
</svg>
