<svg width="59" height="25" viewBox="0 0 59 25" fill="none" xmlns="http://www.w3.org/2000/svg">
<g clip-path="url(#clip0_4007_78736)">
<path d="M27.902 12.2249V19.1466H25.7222V2.04904H31.5003C32.8942 2.01914 34.2411 2.55235 35.242 3.52907C36.2553 4.44849 36.8262 5.76407 36.804 7.13696C36.8336 8.51982 36.2627 9.84537 35.242 10.7673C34.2312 11.739 32.9832 12.2249 31.5003 12.2224L27.902 12.2249ZM27.902 4.15447V10.1244H31.5547C32.3653 10.1493 33.1463 9.82792 33.7098 9.2399C34.854 8.11866 34.8812 6.27236 33.7666 5.11874C33.7468 5.0988 33.7295 5.07887 33.7098 5.06143C33.1537 4.46095 32.3678 4.13205 31.5547 4.15447H27.902ZM41.8259 7.06719C43.4372 7.06719 44.7076 7.50074 45.6393 8.36783C46.571 9.23492 47.0356 10.4259 47.0356 11.9358V19.1466H44.9522V17.5221H44.8583C43.9562 18.8601 42.7551 19.5279 41.2575 19.5279C39.9797 19.5279 38.9096 19.1466 38.0496 18.3817C37.2142 17.6716 36.7397 16.6201 36.7595 15.5163C36.7595 14.3054 37.2142 13.3436 38.1212 12.6285C39.0282 11.9134 40.2392 11.5546 41.7567 11.5546C43.0492 11.5546 44.1169 11.7938 44.9522 12.2697V11.7664C44.9572 11.0139 44.626 10.3013 44.0526 9.82294C43.4768 9.2997 42.7255 9.01316 41.9495 9.02313C40.7335 9.02313 39.7697 9.54139 39.0604 10.5754L37.1426 9.35701C38.1954 7.82963 39.7573 7.06719 41.8259 7.06719ZM39.006 15.5662C39.0035 16.1342 39.2729 16.6675 39.7277 16.9988C40.2096 17.3801 40.8077 17.5844 41.4206 17.5719C42.3399 17.5694 43.2222 17.2007 43.8722 16.5454C44.5939 15.8602 44.9547 15.0579 44.9547 14.1335C44.2751 13.5878 43.3285 13.3137 42.1126 13.3137C41.2278 13.3137 40.4889 13.528 39.8982 13.9591C39.3026 14.3976 39.006 14.9283 39.006 15.5662ZM58.9973 7.44841L51.7239 24.3043H49.4749L52.1737 18.4066L47.389 7.44841H49.7566L53.2142 15.8527H53.2611L56.6247 7.44841H58.9973Z" fill="#F5ECE9"/>
<path d="M19.0999 10.7405C19.0999 10.0702 19.0456 9.40247 18.9319 8.74219H9.74316V12.5245H15.0048C14.7873 13.7454 14.0854 14.8243 13.0598 15.5095V17.9662H16.201C18.0397 16.2594 19.0999 13.7304 19.0999 10.7405Z" fill="#4285F4"/>
<path d="M9.7463 20.3359C12.3759 20.3359 14.5903 19.4663 16.2041 17.9639L13.0629 15.5071C12.1881 16.1051 11.0636 16.4465 9.7463 16.4465C7.20569 16.4465 5.04815 14.7198 4.27707 12.3926H1.04199V14.9241C2.69537 18.2429 6.0639 20.3359 9.7463 20.3359Z" fill="#34A853"/>
<path d="M4.27307 12.3929C3.86529 11.1745 3.86529 9.85147 4.27307 8.63306V6.10156H1.03799C-0.345998 8.87724 -0.345998 12.1488 1.03799 14.9244L4.27307 12.3929Z" fill="#FBBC04"/>
<path d="M9.7463 4.5834C11.1352 4.56097 12.4772 5.0892 13.4831 6.05595L16.2659 3.25286C14.5013 1.58347 12.1658 0.666549 9.7463 0.693957C6.0639 0.693957 2.69537 2.78942 1.04199 6.10578L4.27707 8.63728C5.04815 6.3101 7.20569 4.5834 9.7463 4.5834Z" fill="#EA4335"/>
</g>
<defs>
<clipPath id="clip0_4007_78736">
<rect width="59" height="25" fill="white"/>
</clipPath>
</defs>
</svg>
