<svg width="119" height="28" viewBox="0 0 119 28" fill="none" xmlns="http://www.w3.org/2000/svg">
<g clip-path="url(#clip0_4007_78725)">
<path fill-rule="evenodd" clip-rule="evenodd" d="M10.3832 6.58887H18.518C22.8856 6.58887 24.5319 8.73331 24.2704 11.8935C23.854 17.1042 20.6098 19.9822 16.31 19.9822H14.1407C13.55 19.9822 13.1529 20.3584 12.998 21.393L12.078 27.3655C12.0199 27.7511 11.8068 27.9768 11.4969 28.0051H6.38364C5.89943 28.0051 5.7348 27.6477 5.86069 26.8764L8.96934 7.71752C9.09523 6.95568 9.52134 6.58887 10.3832 6.58887Z" fill="#009EE3"/>
<path fill-rule="evenodd" clip-rule="evenodd" d="M45.6891 6.24085C48.4297 6.24085 50.967 7.68929 50.6184 11.2916C50.2019 15.571 47.839 17.9412 44.1105 17.9506H40.8566C40.3918 17.9506 40.1594 18.3174 40.0432 19.0793L39.4137 22.9637C39.3168 23.5469 39.0069 23.8384 38.5518 23.8384H35.5206C35.0364 23.8384 34.8718 23.5375 34.9783 22.8697L37.4768 7.28485C37.6027 6.51361 37.8933 6.23145 38.4356 6.23145H45.6891V6.24085ZM40.7501 14.5835H43.2196C44.7594 14.527 45.7859 13.4924 45.8924 11.6208C45.9505 10.4639 45.1468 9.63622 43.8684 9.64562L41.5442 9.65503L40.7501 14.5835ZM58.85 22.6533C59.1308 22.4088 59.4116 22.2865 59.3729 22.5875L59.2761 23.3117C59.2276 23.6879 59.3826 23.8855 59.7409 23.8855H62.4331C62.8883 23.8855 63.111 23.7068 63.2176 23.0296L64.8736 12.9187C64.9607 12.4108 64.8251 12.1663 64.4281 12.1663H61.4647C61.1935 12.1663 61.0677 12.3074 60.9999 12.7024L60.8933 13.3231C60.8352 13.6429 60.6803 13.7088 60.5447 13.3796C60.0411 12.2227 58.7628 11.7054 56.9712 11.7524C52.8167 11.8371 50.0276 14.8939 49.7274 18.8159C49.495 21.8539 51.732 24.2335 54.6857 24.2335C56.826 24.2241 57.7847 23.6127 58.85 22.6533ZM56.5935 21.1014C54.8116 21.1014 53.5624 19.7188 53.8238 18.0165C54.0853 16.3235 55.751 14.9315 57.5426 14.9315C59.3342 14.9315 60.5738 16.3141 60.3123 18.0165C60.0508 19.7094 58.3851 21.1014 56.5935 21.1014ZM70.1321 12.1287H67.4011C66.8395 12.1287 66.607 12.5331 66.791 13.041L70.1805 22.6722L66.8588 27.2526C66.578 27.6382 66.8007 27.9862 67.1881 27.9862H70.258C70.2967 27.9862 70.3258 27.9956 70.3645 27.9956C70.6938 27.9956 70.994 27.8263 71.1683 27.5536L81.5886 13.041C81.9081 12.5989 81.7629 12.1287 81.2302 12.1287H78.325C77.8311 12.1287 77.6277 12.3168 77.3469 12.7212L72.9986 18.8347L71.0618 12.7024C70.9456 12.3262 70.6647 12.1287 70.1321 12.1287Z" fill="#113984"/>
<path fill-rule="evenodd" clip-rule="evenodd" d="M92.421 6.24085C95.1616 6.24085 97.6989 7.68929 97.3503 11.2916C96.9339 15.571 94.5709 17.9412 90.8425 17.9506H87.5886C87.1237 17.9506 86.8913 18.3174 86.7751 19.0793L86.1456 22.9637C86.0488 23.5469 85.7389 23.8384 85.2837 23.8384H82.2526C81.7683 23.8384 81.6037 23.5375 81.7102 22.8697L84.2185 7.28485C84.3443 6.52301 84.6349 6.23145 85.1772 6.23145L92.421 6.24085ZM87.4917 14.5835H89.9612C91.501 14.527 92.5275 13.4924 92.6341 11.6208C92.6922 10.4639 91.8884 9.63622 90.6101 9.64562L88.2858 9.65503L87.4917 14.5835ZM105.582 22.6533C105.863 22.4088 106.144 22.2865 106.105 22.5875L106.008 23.3117C105.96 23.6879 106.115 23.8855 106.473 23.8855H109.165C109.62 23.8855 109.843 23.7068 109.949 23.0296L111.605 12.9187C111.693 12.4108 111.557 12.1663 111.16 12.1663H108.206C107.935 12.1663 107.809 12.3074 107.741 12.7024L107.635 13.3231C107.577 13.6429 107.422 13.7088 107.286 13.3796C106.783 12.2227 105.504 11.7054 103.723 11.7524C99.568 11.8371 96.7789 14.8939 96.4787 18.8159C96.2463 21.8539 98.4833 24.2335 101.437 24.2335C103.577 24.2335 104.536 23.6221 105.611 22.6628L105.582 22.6533ZM103.335 21.1014C101.553 21.1014 100.304 19.7188 100.565 18.0165C100.827 16.3235 102.493 14.9315 104.284 14.9315C106.066 14.9315 107.315 16.3141 107.054 18.0165C106.792 19.7094 105.117 21.1014 103.335 21.1014ZM115.741 23.8949H112.632C112.622 23.8949 112.622 23.8949 112.613 23.8949C112.409 23.8949 112.245 23.735 112.245 23.5375C112.245 23.5186 112.245 23.4998 112.245 23.4904L114.976 6.70172C115.034 6.46658 115.247 6.29728 115.489 6.29728H118.598C118.607 6.29728 118.607 6.29728 118.617 6.29728C118.82 6.29728 118.985 6.45718 118.985 6.65469C118.985 6.6735 118.985 6.69231 118.985 6.70172L116.254 23.4904C116.206 23.7256 115.992 23.8949 115.741 23.8949Z" fill="#009EE3"/>
<path fill-rule="evenodd" clip-rule="evenodd" d="M5.29426 0H13.4387C15.7339 0 18.4551 0.0752436 20.2661 1.62714C21.4766 2.67115 22.1158 4.3265 21.9705 6.11354C21.4669 12.1518 17.7579 15.5284 12.7705 15.5284H8.75153C8.06395 15.5284 7.61847 15.9704 7.42479 17.1555L6.30142 24.0873C6.22394 24.5388 6.03026 24.8021 5.67194 24.8304H0.655502C0.1035 24.8304 -0.0998688 24.4259 0.0453949 23.523L3.65762 1.31676C3.80288 0.423245 4.30646 0 5.29426 0Z" fill="#113984"/>
<path fill-rule="evenodd" clip-rule="evenodd" d="M7.54468 16.4646L8.96826 7.72693C9.09416 6.96508 9.52026 6.58887 10.3822 6.58887H18.5169C19.863 6.58887 20.9477 6.79579 21.7999 7.172C20.9864 12.5425 17.4032 15.5334 12.7161 15.5334H8.71647C8.17415 15.5334 7.78678 15.7968 7.54468 16.4646Z" fill="#172C70"/>
</g>
<defs>
<clipPath id="clip0_4007_78725">
<rect width="119" height="28" fill="white"/>
</clipPath>
</defs>
</svg>
