<svg width="1440" height="888" viewBox="0 0 1440 888" fill="none" xmlns="http://www.w3.org/2000/svg">
<g opacity="0.08">
<rect x="21.8998" y="516.853" width="21.0194" height="78.291" fill="#F5ECE9" stroke="#F5ECE9" stroke-width="3.00278"/>
<path d="M32.4062 505.453L32.4062 614.295" stroke="#F5ECE9" stroke-width="3.00278" stroke-linecap="round"/>
<g opacity="0.4">
<rect x="442.29" y="693.767" width="21.0194" height="51.1961" fill="#F5ECE9" stroke="#F5ECE9" stroke-width="3.00278"/>
<path d="M452.797 678.719L452.797 755.5" stroke="#F5ECE9" stroke-width="3.00278" stroke-linecap="round"/>
</g>
<g opacity="0.4">
<rect x="484.33" y="676.665" width="21.0194" height="26.3549" fill="#F5ECE9" stroke="#F5ECE9" stroke-width="3.00278"/>
<path d="M494.844 661.617L494.844 738.399" stroke="#F5ECE9" stroke-width="3.00278" stroke-linecap="round"/>
</g>
<g opacity="0.4">
<rect x="526.369" y="692.111" width="21.0194" height="26.8765" fill="#F5ECE9" stroke="#F5ECE9" stroke-width="3.00278"/>
<path d="M536.875 687.094L536.875 746.852" stroke="#F5ECE9" stroke-width="3.00278" stroke-linecap="round"/>
</g>
<g opacity="0.4">
<rect x="1.50139" y="-1.50139" width="21.0194" height="14.6374" transform="matrix(1 0 0 -1 566.906 722.075)" fill="#F5ECE9" stroke="#F5ECE9" stroke-width="3.00278"/>
<path d="M578.922 733.219L578.922 687.083" stroke="#F5ECE9" stroke-width="3.00278" stroke-linecap="round"/>
</g>
<g opacity="0.4">
<rect x="1.50139" y="-1.50139" width="21.0194" height="35.2388" transform="matrix(1 0 0 -1 610 712.568)" fill="#F5ECE9" stroke="#F5ECE9" stroke-width="3.00278"/>
<path d="M622.016 733.219L622.016 633.202" stroke="#F5ECE9" stroke-width="3.00278" stroke-linecap="round"/>
</g>
<g opacity="0.4">
<rect x="652.501" y="698.923" width="21.0194" height="10.8917" fill="#F5ECE9" stroke="#F5ECE9" stroke-width="3.00278"/>
<path d="M663.016 691.008L663.016 727.347" stroke="#F5ECE9" stroke-width="3.00278" stroke-linecap="round"/>
</g>
<rect x="305.298" y="674.634" width="21.0194" height="67.5972" fill="#F5ECE9" stroke="#F5ECE9" stroke-width="3.00278"/>
<path d="M315.812 655.484L315.813 814.334" stroke="#F5ECE9" stroke-width="3.00278" stroke-linecap="round"/>
<g opacity="0.3">
<rect x="681.475" y="708.936" width="23.0714" height="0.950834" fill="#F5ECE9" stroke="#F5ECE9" stroke-width="0.950834"/>
<path d="M693.016 702.758L693.016 735.086" stroke="#F5ECE9" stroke-width="3.00278" stroke-linecap="round"/>
</g>
<g opacity="0.3">
<rect x="730.501" y="708.142" width="21.0194" height="13.8883" fill="#F5ECE9" stroke="#F5ECE9" stroke-width="3.00278"/>
<path d="M741.016 698.844L741.016 743.02" stroke="#F5ECE9" stroke-width="3.00278" stroke-linecap="round"/>
</g>
<g opacity="0.4">
<rect x="778.603" y="715.814" width="21.0194" height="35.2389" fill="#F5ECE9" stroke="#F5ECE9" stroke-width="3.00278"/>
<path d="M789.109 696.664L789.109 796.681" stroke="#F5ECE9" stroke-width="3.00278" stroke-linecap="round"/>
</g>
<g opacity="0.4">
<rect x="826.642" y="671.697" width="21.0194" height="35.2389" fill="#F5ECE9" stroke="#F5ECE9" stroke-width="3.00278"/>
<path d="M837.156 652.547L837.156 752.563" stroke="#F5ECE9" stroke-width="3.00278" stroke-linecap="round"/>
</g>
<g opacity="0.4">
<rect x="1.50139" y="-1.50139" width="21.0194" height="35.2389" transform="matrix(1 0 0 -1 873.023 641.06)" fill="#F5ECE9" stroke="#F5ECE9" stroke-width="3.00278"/>
<path d="M885.031 661.711L885.031 561.694" stroke="#F5ECE9" stroke-width="3.00278" stroke-linecap="round"/>
</g>
<g opacity="0.4">
<rect x="922.564" y="533.673" width="21.0194" height="14.6472" fill="#F5ECE9" stroke="#F5ECE9" stroke-width="3.00278"/>
<path d="M933.078 514.516L933.078 614.532" stroke="#F5ECE9" stroke-width="3.00278" stroke-linecap="round"/>
</g>
<g opacity="0.4">
<rect x="1.50139" y="-1.50139" width="21.0194" height="35.2389" transform="matrix(1 0 0 -1 1017 305.036)" fill="#F5ECE9" stroke="#F5ECE9" stroke-width="3.00278"/>
<path d="M1029.02 325.688L1029.02 225.671" stroke="#F5ECE9" stroke-width="3.00278" stroke-linecap="round"/>
</g>
<g opacity="0.8">
<rect x="1065.44" y="208.156" width="22.3971" height="1.62516" fill="#F5ECE9" stroke="#F5ECE9" stroke-width="1.62516"/>
<path d="M1076.64 206.258L1076.64 245.262" stroke="#F5ECE9" stroke-width="3.00278" stroke-linecap="round"/>
</g>
<g opacity="0.8">
<rect x="1114.6" y="132.259" width="21.0194" height="97.0138" fill="#F5ECE9" stroke="#F5ECE9" stroke-width="3.00278"/>
<path d="M1125.11 113.109L1125.11 213.126" stroke="#F5ECE9" stroke-width="3.00278" stroke-linecap="round"/>
</g>
<g opacity="0.8">
<rect x="1.50139" y="-1.50139" width="21.0194" height="35.2389" transform="matrix(1 0 0 -1 1161.13 233.419)" fill="#F5ECE9" stroke="#F5ECE9" stroke-width="3.00278"/>
<path d="M1173.14 254.07L1173.14 154.054" stroke="#F5ECE9" stroke-width="3.00278" stroke-linecap="round"/>
</g>
<g opacity="0.8">
<rect x="1210.68" y="173.205" width="21.0194" height="11.7055" fill="#F5ECE9" stroke="#F5ECE9" stroke-width="3.00278"/>
<path d="M1221.19 154.055L1221.19 254.071" stroke="#F5ECE9" stroke-width="3.00278" stroke-linecap="round"/>
</g>
<g opacity="0.8">
<rect x="1258.72" y="93.7748" width="21.0194" height="47.0055" fill="#F5ECE9" stroke="#F5ECE9" stroke-width="3.00278"/>
<path d="M1269.23 86.3906L1269.23 186.407" stroke="#F5ECE9" stroke-width="3.00278" stroke-linecap="round"/>
</g>
<rect x="1306.3" y="41.1498" width="21.0194" height="67.5972" fill="#F5ECE9" stroke="#F5ECE9" stroke-width="3.00278"/>
<path d="M1316.81 22L1316.81 180.85" stroke="#F5ECE9" stroke-width="3.00278" stroke-linecap="round"/>
<g opacity="0.8">
<rect x="1.50139" y="-1.50139" width="21.0194" height="35.2389" transform="matrix(1 0 0 -1 1353.31 221.099)" fill="#F5ECE9" stroke="#F5ECE9" stroke-width="3.00278"/>
<path d="M1365.33 241.75L1365.33 141.733" stroke="#F5ECE9" stroke-width="3.00278" stroke-linecap="round"/>
</g>
<g opacity="0.8">
<rect x="1402.86" y="199.119" width="21.0194" height="14.6472" fill="#F5ECE9" stroke="#F5ECE9" stroke-width="3.00278"/>
<path d="M1413.38 179.969L1413.38 279.985" stroke="#F5ECE9" stroke-width="3.00278" stroke-linecap="round"/>
</g>
<rect x="1.50139" y="-1.50139" width="21.0194" height="5.78574" transform="matrix(1 0 0 -1 68.4453 574.927)" fill="#F5ECE9" stroke="#F5ECE9" stroke-width="3.00278"/>
<path d="M80.4531 579L80.4531 502.517" stroke="#F5ECE9" stroke-width="3.00278" stroke-linecap="round"/>
<rect x="117.986" y="505.087" width="21.0194" height="5.78574" fill="#F5ECE9" stroke="#F5ECE9" stroke-width="3.00278"/>
<path d="M128.5 502.516L128.5 578.999" stroke="#F5ECE9" stroke-width="3.00278" stroke-linecap="round"/>
<rect x="214.08" y="645.025" width="21.0194" height="19.8517" fill="#F5ECE9" stroke="#F5ECE9" stroke-width="3.00278"/>
<path d="M224.594 631.078L224.594 689.911" stroke="#F5ECE9" stroke-width="3.00278" stroke-linecap="round"/>
<rect x="1.50139" y="-1.50139" width="21.0194" height="5.82221" transform="matrix(1 0 0 -1 260.625 742.169)" fill="#F5ECE9" stroke="#F5ECE9" stroke-width="3.00278"/>
<path d="M272.641 748.109L272.641 642.209" stroke="#F5ECE9" stroke-width="3.00278" stroke-linecap="round"/>
<g opacity="0.6">
<rect x="352.501" y="668.033" width="21.0194" height="35.2389" fill="#F5ECE9" stroke="#F5ECE9" stroke-width="3.00278"/>
<path d="M363.016 648.883L363.016 748.899" stroke="#F5ECE9" stroke-width="3.00278" stroke-linecap="round"/>
</g>
<g opacity="0.4">
<rect x="400.251" y="684.986" width="21.0194" height="35.2389" fill="#F5ECE9" stroke="#F5ECE9" stroke-width="3.00278"/>
<path d="M410.766 665.836L410.766 765.853" stroke="#F5ECE9" stroke-width="3.00278" stroke-linecap="round"/>
</g>
<rect x="166.298" y="568.111" width="21.0194" height="67.5972" fill="#F5ECE9" stroke="#F5ECE9" stroke-width="3.00278"/>
<path d="M176.812 548.961L176.813 707.811" stroke="#F5ECE9" stroke-width="3.00278" stroke-linecap="round"/>
<g opacity="0.4">
<rect x="970.783" y="421.142" width="21.0194" height="5.82221" fill="#F5ECE9" stroke="#F5ECE9" stroke-width="3.00278"/>
<path d="M981.297 416.703L981.297 522.603" stroke="#F5ECE9" stroke-width="3.00278" stroke-linecap="round"/>
</g>
</g>
</svg>
