<svg width="25" height="24" viewBox="0 0 25 24" fill="none" xmlns="http://www.w3.org/2000/svg">
<rect width="25" height="24" fill="#1E1E1E"/>
<g id="UPDATED DESIGNS">
<path d="M-4645 -12556C-4645 -12557.1 -4644.1 -12558 -4643 -12558H19001C19002.1 -12558 19003 -12557.1 19003 -12556V56251C19003 56252.1 19002.1 56253 19001 56253H-4643C-4644.1 56253 -4645 56252.1 -4645 56251V-12556Z" fill="#444444"/>
<path d="M-4643 -12557H19001V-12559H-4643V-12557ZM19002 -12556V56251H19004V-12556H19002ZM19001 56252H-4643V56254H19001V56252ZM-4644 56251V-12556H-4646V56251H-4644ZM-4643 56252C-4643.55 56252 -4644 56251.6 -4644 56251H-4646C-4646 56252.7 -4644.66 56254 -4643 56254V56252ZM19002 56251C19002 56251.6 19001.6 56252 19001 56252V56254C19002.7 56254 19004 56252.7 19004 56251H19002ZM19001 -12557C19001.6 -12557 19002 -12556.6 19002 -12556H19004C19004 -12557.7 19002.7 -12559 19001 -12559V-12557ZM-4643 -12559C-4644.66 -12559 -4646 -12557.7 -4646 -12556H-4644C-4644 -12556.6 -4643.55 -12557 -4643 -12557V-12559Z" fill="white" fill-opacity="0.1"/>
<g id="Login V2" clip-path="url(#clip0_2870_115)">
<rect width="1920" height="1080" transform="translate(-842 -402)" fill="#161716"/>
<g id="Frame 1000005743">
<rect x="-168" y="-196" width="572" height="764" rx="48" fill="#1F201F"/>
<g id="Group 1000005835">
<g id="Button Container">
<rect x="-120.5" y="-12.5" width="477" height="49" rx="8.5" fill="#161716"/>
<rect x="-120.5" y="-12.5" width="477" height="49" rx="8.5" stroke="url(#paint0_linear_2870_115)"/>
<g id="Group 108">
<path id="Vector" d="M24.4997 12.2658C24.4997 11.2791 24.418 10.5591 24.2411 9.8125H12.7427V14.2657H19.492C19.356 15.3724 18.6212 17.039 16.9882 18.159L16.9653 18.308L20.6009 21.0677L20.8528 21.0923C23.1661 18.999 24.4997 15.919 24.4997 12.2658Z" fill="#4285F4"/>
<path id="Vector_2" d="M12.7482 23.9995C16.0548 23.9995 18.8307 22.9328 20.8583 21.0929L16.9937 18.1596C15.9596 18.8662 14.5716 19.3596 12.7482 19.3596C9.50959 19.3596 6.76087 17.2663 5.78103 14.373L5.6374 14.385L1.85705 17.2516L1.80762 17.3863C3.82153 21.3062 7.95826 23.9995 12.7482 23.9995Z" fill="#34A853"/>
<path id="Vector_3" d="M5.77971 14.373C5.52117 13.6263 5.37155 12.8263 5.37155 11.9997C5.37155 11.173 5.52117 10.373 5.76611 9.62638L5.75926 9.46736L1.93154 6.55469L1.8063 6.61306C0.976273 8.23972 0.5 10.0664 0.5 11.9997C0.5 13.933 0.976273 15.7596 1.8063 17.3862L5.77971 14.373Z" fill="#FBBC05"/>
<path id="Vector_4" d="M12.7482 4.63989C15.0478 4.63989 16.5991 5.61321 17.4836 6.42658L20.94 3.11995C18.8172 1.18665 16.0548 0 12.7482 0C7.95826 0 3.82153 2.69327 1.80762 6.61317L5.76743 9.6265C6.76087 6.73322 9.50959 4.63989 12.7482 4.63989Z" fill="#EA4335"/>
</g>
</g>
</g>
</g>
</g>
</g>
<defs>
<linearGradient id="paint0_linear_2870_115" x1="356" y1="36" x2="270.081" y2="-172.639" gradientUnits="userSpaceOnUse">
<stop stop-color="#FF5722"/>
<stop offset="1" stop-color="#FF8A65"/>
</linearGradient>
<clipPath id="clip0_2870_115">
<rect width="1920" height="1080" fill="white" transform="translate(-842 -402)"/>
</clipPath>
</defs>
</svg>
