<svg width="48" height="48" viewBox="0 0 48 48" fill="none" xmlns="http://www.w3.org/2000/svg">
<path d="M34.0006 4H14.0005C8.47766 4 4.00049 8.47715 4.00049 14V34C4.00049 39.5228 8.47766 44 14.0005 44H34.0006C39.5235 44 44.0007 39.5228 44.0007 34V14C44.0007 8.47715 39.5235 4 34.0006 4Z" stroke="#FF8A65" stroke-width="2" stroke-linecap="round" stroke-linejoin="round"/>
<path d="M31.9995 22.7484C32.2463 24.4129 31.962 26.1128 31.187 27.6064C30.412 29.1 29.1858 30.3112 27.6827 31.0678C26.1797 31.8243 24.4763 32.0876 22.815 31.8203C21.1537 31.5529 19.619 30.7686 18.4291 29.5787C17.2393 28.3889 16.4549 26.8542 16.1875 25.1928C15.9202 23.5315 16.1835 21.8282 16.9401 20.3252C17.6966 18.8221 18.9078 17.5959 20.4014 16.8209C21.895 16.0459 23.595 15.7616 25.2595 16.0084C26.9573 16.2602 28.5292 17.0513 29.7429 18.265C30.9566 19.4787 31.7477 21.0506 31.9995 22.7484Z" stroke="#FF8A65" stroke-width="2" stroke-linecap="round" stroke-linejoin="round"/>
<path d="M35 13H35.0153" stroke="#FF8A65" stroke-width="2" stroke-linecap="round" stroke-linejoin="round"/>
</svg>
