<svg width="24" height="24" viewBox="0 0 24 24" fill="none" xmlns="http://www.w3.org/2000/svg">
<path d="M5.94045 4.03827C5.45846 4.14468 5.09228 4.35124 4.71671 4.72368C4.40061 5.03979 4.22847 5.31208 4.0845 5.72833L4 5.97871V12.0035V18.0283L4.0845 18.2786C4.22847 18.6918 4.40061 18.9672 4.71671 19.2833C5.03282 19.5994 5.30824 19.7715 5.72136 19.9155L5.97174 20H9.63355H13.2954L13.5457 19.9155C13.9589 19.7715 14.2343 19.5994 14.5504 19.2833C14.8696 18.9641 15.0418 18.6886 15.1795 18.2786C15.264 18.0314 15.264 18.0126 15.2765 17.0643C15.2859 16.1254 15.2859 16.0972 15.2202 15.9595C15.1763 15.8719 15.1012 15.7842 15.023 15.7341C14.9134 15.6622 14.8634 15.6496 14.6568 15.6496C14.4502 15.6496 14.4002 15.6622 14.2906 15.7341C14.2155 15.7842 14.1373 15.8719 14.0966 15.9532C14.0371 16.0816 14.0309 16.1441 14.0309 16.7638C14.0309 17.1331 14.0152 17.5306 13.9996 17.6527C13.9182 18.2223 13.4894 18.6511 12.9198 18.7325C12.6256 18.7731 6.64151 18.7731 6.34731 18.7325C5.7777 18.6511 5.34892 18.2223 5.26755 17.6527C5.22686 17.3522 5.22686 6.65474 5.26755 6.35429C5.34892 5.78467 5.7777 5.35589 6.34731 5.27452C6.64151 5.23383 12.6256 5.23383 12.9198 5.27452C13.4894 5.35589 13.9182 5.78467 13.9996 6.35429C14.0152 6.47322 14.0309 6.87382 14.0309 7.24313C14.0309 7.86282 14.0371 7.92542 14.0966 8.05374C14.1373 8.13511 14.2155 8.22275 14.2906 8.27282C14.4002 8.34481 14.4502 8.35733 14.6568 8.35733C14.8634 8.35733 14.9134 8.34481 15.023 8.27282C15.1012 8.22275 15.1763 8.13511 15.2202 8.04748C15.2859 7.90977 15.2859 7.8816 15.2765 6.94268C15.264 5.99436 15.264 5.97558 15.1795 5.72833C15.0418 5.31834 14.8696 5.04292 14.5504 4.72368C14.2343 4.40758 13.9589 4.23544 13.5457 4.09147L13.2954 4.00697L9.7118 4.00071C6.8293 3.99758 6.09067 4.00384 5.94045 4.03827Z" fill="url(#paint0_linear_2870_45144)"/>
<path d="M17.4251 9.39486C17.1184 9.55448 16.987 9.90188 17.1122 10.2117C17.1435 10.2837 17.3625 10.5278 17.7006 10.8658L18.2389 11.4073H14.4081H10.5741L10.4364 11.473C10.355 11.5137 10.2674 11.5919 10.2173 11.6671C10.1453 11.7766 10.1328 11.8267 10.1328 12.0332C10.1328 12.2398 10.1453 12.2899 10.2173 12.3994C10.2674 12.4745 10.355 12.5528 10.4364 12.5935L10.5741 12.6592H14.4081H18.2389L17.7006 13.1975C17.3625 13.5387 17.1435 13.7828 17.1122 13.8548C17.0214 14.077 17.0715 14.3618 17.2311 14.5308C17.4095 14.7248 17.7631 14.7843 17.9979 14.6654C18.0605 14.6309 18.4799 14.2335 18.9305 13.7796C19.6504 13.0535 19.7599 12.9315 19.8538 12.7374L19.9602 12.5184V12.0332V11.5481L19.8538 11.3291C19.7599 11.135 19.6504 11.0129 18.9305 10.2868C18.4799 9.83303 18.0605 9.43555 17.9979 9.40112C17.8539 9.32601 17.5597 9.32288 17.4251 9.39486Z" fill="url(#paint1_linear_2870_45144)"/>
<defs>
<linearGradient id="paint0_linear_2870_45144" x1="15.2809" y1="4" x2="1.6441" y2="6.35439" gradientUnits="userSpaceOnUse">
<stop stop-color="#FF5722"/>
<stop offset="1" stop-color="#FF8A65"/>
</linearGradient>
<linearGradient id="paint1_linear_2870_45144" x1="19.9602" y1="9.34278" x2="9.76358" y2="13.9005" gradientUnits="userSpaceOnUse">
<stop stop-color="#FF5722"/>
<stop offset="1" stop-color="#FF8A65"/>
</linearGradient>
</defs>
</svg>
