<svg width="160" height="160" viewBox="0 0 160 160" fill="none" xmlns="http://www.w3.org/2000/svg">
<path d="M28.2 28.4438C24.575 29.6188 21.475 32.7938 20.4 36.4438C20.05 37.6688 20 41.5188 20 71.9938C20 104.844 20.025 106.244 20.475 107.694C21.625 111.369 24.775 114.494 28.475 115.569C29.675 115.919 32.65 115.969 53.6 115.969C76.875 115.969 77.4 115.969 78.2 115.469C80.575 114.019 80.675 110.069 78.325 108.544C77.7 108.119 76.275 108.094 54.375 107.969C31.475 107.844 31.1 107.844 30.25 107.319C29.05 106.619 28.3 105.444 28.125 103.894C28.05 103.169 28 88.7938 28.05 71.9438L28.125 41.3188L52.75 60.2688C66.3 70.6938 77.675 79.3938 78.05 79.5938C78.925 80.0688 81.075 80.0688 81.95 79.5938C82.325 79.3938 93.7 70.6938 107.25 60.2688L131.875 41.3188L132 57.4688C132.125 72.4938 132.15 73.6688 132.575 74.2938C133.3 75.4188 134.45 75.9688 136 75.9688C137.625 75.9688 138.75 75.3688 139.5 74.1688C139.975 73.3688 140 72.8688 140 55.5688C140 40.0938 139.95 37.6438 139.6 36.4438C138.525 32.7438 135.4 29.5938 131.725 28.4438C130.25 27.9938 128.6 27.9688 79.925 27.9938C31.85 27.9938 29.55 28.0188 28.2 28.4438ZM124.875 36.1938C124.725 36.3188 114.575 44.1438 102.325 53.5688L80 70.7188L57.7 53.5688C45.425 44.1438 35.275 36.3188 35.15 36.1938C35 36.0688 53.675 35.9688 80 35.9688C106.325 35.9688 125 36.0688 124.875 36.1938Z" fill="#FF8A65"/>
<path d="M106.25 76.4421C96.9 78.5171 89.55 84.6171 85.975 93.2921C83.3 99.7921 83.3 108.142 85.975 114.642C88.35 120.367 92.3 124.942 97.725 128.217C104.875 132.492 114.625 133.217 122.55 130.017C131.375 126.467 137.55 118.992 139.55 109.467C140.2 106.317 140.075 100.167 139.3 97.0671C136.775 87.1921 128.775 79.1921 118.9 76.6671C115.925 75.9171 109.2 75.7921 106.25 76.4421ZM116.725 84.7421C120.575 85.6171 124.65 88.1671 127.3 91.3671C128.85 93.2171 130.85 97.2921 131.35 99.6421C131.85 101.942 131.85 105.992 131.35 108.292C130.85 110.642 128.85 114.717 127.3 116.567C123.525 121.092 117.9 123.742 112.025 123.742C108.825 123.742 106.4 123.192 103.375 121.717C99.075 119.617 96.35 116.892 94.25 112.592C92.775 109.517 92.25 107.292 92.25 103.917C92.25 98.4671 94.175 93.8421 98.025 89.9921C103.025 84.9921 109.675 83.1171 116.725 84.7421Z" fill="#FF8A65"/>
<path d="M120.125 96.2451C119.85 96.3951 117.45 98.6701 114.825 101.32L110 106.095L107.2 103.295C105.65 101.77 104.125 100.395 103.825 100.245C103.525 100.095 102.675 99.9701 101.95 99.9701C99.525 99.9701 98 101.495 98 103.92C98 104.645 98.15 105.545 98.35 105.92C98.775 106.72 107.4 115.295 108.175 115.695C108.95 116.095 111.15 116.045 111.95 115.62C112.75 115.17 125.325 102.57 125.725 101.795C125.875 101.495 126 100.645 126 99.9201C126 97.4701 124.475 95.9701 122 95.9701C121.25 95.9701 120.4 96.1201 120.125 96.2451Z" fill="#FF8A65"/>
</svg>
