<svg width="24" height="24" viewBox="0 0 24 24" fill="none" xmlns="http://www.w3.org/2000/svg">
<path d="M11.3116 4.02938C11.1745 4.05508 10.9517 4.10221 10.8189 4.14077C10.4161 4.25644 4.0111 6.59568 3.79688 6.70279C3.53982 6.8356 3.25706 7.13979 3.11568 7.44826C3.01285 7.66247 3 7.74388 3 8.12089C3 8.48935 3.01714 8.5836 3.11139 8.78496C3.24849 9.08486 3.437 9.2948 3.69834 9.46188C3.89542 9.58613 10.4033 11.9768 10.9003 12.1096C11.5472 12.2767 12.4083 12.2767 13.0681 12.1053C13.5823 11.9682 20.0558 9.59041 20.2529 9.46188C20.5143 9.2948 20.7028 9.08058 20.8399 8.78496C20.9341 8.5836 20.9513 8.48935 20.9513 8.12089C20.9513 7.74388 20.9384 7.66247 20.8356 7.44826C20.6685 7.09266 20.3857 6.80989 20.043 6.65138C19.6146 6.45858 13.3937 4.20932 13.0124 4.11078C12.6311 4.01224 11.7143 3.9694 11.3116 4.02938ZM12.5369 5.46034C12.8882 5.53745 19.4303 7.90668 19.5117 7.99237C19.546 8.02664 19.5589 8.0909 19.5417 8.15517C19.5203 8.24086 19.4603 8.28798 19.2675 8.35653C19.1347 8.40794 17.6181 8.96062 15.8958 9.58613C12.3355 10.8843 12.2627 10.9014 11.5815 10.79C11.2687 10.7386 10.5104 10.4816 8.05549 9.58613C6.33748 8.96062 4.81655 8.40794 4.68373 8.35653C4.49094 8.28798 4.43096 8.24086 4.40954 8.15517C4.3924 8.0909 4.40525 8.02664 4.43953 7.99237C4.51665 7.91525 11.0631 5.53745 11.3973 5.46462C11.74 5.3875 12.1898 5.3875 12.5369 5.46034Z" fill="#F5ECE9" stroke="#1F201F" stroke-width="0.1"/>
<path d="M3.47153 12.0157C3.40298 12.05 3.2873 12.1357 3.21447 12.2085C3.09451 12.337 3.08594 12.3713 3.08594 12.6541C3.08594 12.9883 3.1502 13.1254 3.3687 13.2582C3.54864 13.3653 10.9476 15.983 11.2604 16.0515C11.6331 16.1287 12.3143 16.1287 12.6914 16.0515C13.0084 15.983 20.3946 13.3696 20.5788 13.2582C20.8016 13.1254 20.8658 12.9883 20.8658 12.6541C20.8658 12.3713 20.8573 12.337 20.7373 12.2085C20.5874 12.05 20.386 11.9557 20.206 11.9557C20.1332 11.9557 18.3638 12.5684 16.2731 13.3139L12.4686 14.672H11.9759H11.4832L7.67872 13.3139C5.57512 12.5641 3.81427 11.9557 3.73715 11.9557C3.66432 11.96 3.54436 11.9857 3.47153 12.0157Z" fill="#F5ECE9" stroke="#1F201F" stroke-width="0.1"/>
<path d="M3.40525 15.9336C3.17818 16.0536 3.0625 16.2507 3.0625 16.5249C3.0625 16.7734 3.12676 16.9362 3.28528 17.0818C3.37954 17.1675 10.183 19.6224 11.0099 19.8666C11.4469 19.9952 12.0253 20.0337 12.4923 19.9695C12.775 19.9266 13.6962 19.6139 16.708 18.5428C19.1715 17.6688 20.5982 17.1418 20.6625 17.0818C20.821 16.9362 20.8852 16.7734 20.8852 16.5292C20.8852 16.1307 20.6068 15.8522 20.2083 15.8522C20.0926 15.8522 18.8202 16.285 16.2282 17.2104L12.4237 18.5685H11.9739H11.524L7.71955 17.2104C5.02043 16.2464 3.85938 15.8522 3.73514 15.8522C3.6366 15.8522 3.48665 15.8865 3.40525 15.9336Z" fill="#F5ECE9" stroke="#1F201F" stroke-width="0.1"/>
</svg>
