<svg width="187" height="140" viewBox="0 0 187 140" fill="none" xmlns="http://www.w3.org/2000/svg">
<path d="M163.199 70C163.199 108.054 132.306 138.905 94.1939 138.905C56.0821 138.905 25.1891 108.054 25.1891 70C25.1891 31.9465 56.0821 1.0953 94.1939 1.0953C132.306 1.0953 163.199 31.9465 163.199 70Z" stroke="#0A0A0A" stroke-width="2.19061"/>
<ellipse cx="94.1969" cy="70.0014" rx="54.861" ry="54.7826" fill="#0A0A0A"/>
<path d="M118.397 47.1351C116.993 47.408 117.747 46.7143 100.118 63.9654L83.6376 80.1021L78.1828 74.7459C75.1768 71.8006 72.519 69.2533 72.2521 69.0714C71.4049 68.4914 70.4416 68.2412 69.2694 68.3095C68.3873 68.3549 68.1204 68.4232 67.3892 68.7757C66.4027 69.2533 65.6599 69.9925 65.1609 70.9818C64.8591 71.5846 64.8359 71.7324 64.8359 72.9947C64.8359 75.2122 64.2556 74.4958 73.1226 83.2066C81.4672 91.4057 81.2467 91.2237 82.9296 91.4967C83.8349 91.6445 84.6937 91.5308 85.6802 91.1214C86.2489 90.894 88.1755 89.0404 104.853 72.7217C126.092 51.934 124.142 54.0492 124.142 51.7862C124.142 50.5353 124.119 50.4329 123.771 49.7392C122.773 47.7491 120.614 46.7029 118.397 47.1351Z" fill="#FF8A65"/>
<ellipse cx="6.57189" cy="15.3125" rx="6.57189" ry="6.5625" fill="#FF8A65"/>
<ellipse cx="23.0047" cy="123.594" rx="3.28595" ry="3.28125" fill="#FF8A65"/>
<ellipse cx="182.911" cy="42.6562" rx="3.28595" ry="3.28125" fill="#FF8A65"/>
</svg>
