<svg width="24" height="24" viewBox="0 0 24 24" fill="none" xmlns="http://www.w3.org/2000/svg">
<path d="M6.77817 4.04073C6.56492 4.10949 6.31717 4.24702 6.10392 4.41893C5.77777 4.6846 4.62683 5.86608 4.44807 6.11925C4.26932 6.37242 4.12192 6.72561 4.04666 7.06943C3.98393 7.36636 3.98393 8.11963 4.04979 8.5197C4.25677 9.81057 4.94357 11.4046 5.93143 12.9049C7.30189 14.9803 9.08005 16.7619 11.0495 18.0246C13.066 19.3186 14.8724 20 16.2836 20C17.0049 20 17.4753 19.8562 17.9614 19.4905C18.2248 19.2936 19.6016 17.8746 19.7458 17.6527C19.9183 17.387 19.9998 17.1088 19.9998 16.7931C20.003 16.49 19.9622 16.3337 19.8148 16.0461C19.7176 15.8523 19.5639 15.6867 18.5259 14.6427C17.0896 13.2018 16.961 13.1049 16.3902 13.0706C16.0892 13.0487 15.8508 13.0987 15.5686 13.2425C15.371 13.3394 15.2456 13.4488 14.6246 14.0583L13.9065 14.7646L13.6368 14.624C12.9625 14.2739 12.1158 13.6363 11.3913 12.9362C10.4536 12.0266 9.73548 11.1171 9.35602 10.3607L9.21803 10.0825L9.88288 9.423C10.2623 9.0448 10.601 8.67911 10.6763 8.56346C11.0307 8.02586 11.0307 7.37261 10.6732 6.83188C10.4975 6.56621 8.35248 4.42518 8.08278 4.25327C7.80367 4.06886 7.54337 3.99697 7.189 4.0001C7.03219 4.0001 6.84716 4.01885 6.77817 4.04073ZM7.51201 4.90964C7.73154 5.00966 9.89229 7.16945 10.0083 7.40074C10.1244 7.63203 10.1118 7.8602 9.96755 8.08212C9.91424 8.16651 9.55046 8.54783 9.16158 8.93228C8.74762 9.34173 8.42461 9.68555 8.38697 9.75744C8.27721 9.97623 8.31485 10.1888 8.55946 10.6795C8.97656 11.5171 9.58809 12.3329 10.5101 13.2769C11.4384 14.2302 12.3572 14.9303 13.3263 15.4335C13.7026 15.6273 13.7779 15.6554 13.9253 15.6554C14.0162 15.6554 14.1479 15.6335 14.2138 15.6054C14.2953 15.571 14.5838 15.3116 15.0888 14.8115C15.5592 14.3458 15.8947 14.0395 15.9825 13.9957C16.1801 13.8926 16.4279 13.8988 16.6129 14.0082C16.6881 14.052 17.262 14.599 17.8861 15.2241C19.1029 16.44 19.1468 16.4962 19.15 16.7963C19.15 17.0901 19.059 17.2182 18.3283 17.9621C17.3906 18.9123 17.3561 18.9404 16.9547 19.0748C16.5282 19.2155 16.0892 19.2124 15.3428 19.0592C14.057 18.7966 12.144 17.8433 10.6512 16.7181C8.60336 15.1741 6.8158 13.0518 5.77463 10.9202C4.81186 8.95103 4.5892 7.49763 5.12233 6.65372C5.27913 6.4068 6.70918 4.99404 6.88793 4.90964C7.0761 4.819 7.32385 4.819 7.51201 4.90964Z" fill="#F5ECE9" stroke="#F5ECE9" stroke-width="0.3"/>
</svg>
