<svg width="56" height="56" viewBox="0 0 56 56" fill="none" xmlns="http://www.w3.org/2000/svg">
<path d="M26.5719 37.0191C26.5719 34.9471 26.0119 33.1551 24.8639 31.6991C23.1279 29.5151 19.7399 29.2351 17.7799 29.6831C16.9679 25.0631 20.8879 19.1831 25.9559 16.6631L22.0639 11.2031C14.4199 14.8431 6.8879 23.1871 8.1759 33.7431C8.9879 40.4071 12.8519 44.8031 18.3119 44.8031C20.6919 44.8031 22.6799 44.1031 24.2479 42.7031C25.8159 41.3031 26.5719 39.3991 26.5719 37.0191ZM49.1119 37.0191C49.1119 34.9471 48.5519 33.1551 47.4039 31.6991C45.6399 29.5151 42.2799 29.2351 40.3199 29.6831C39.5079 25.0631 43.4279 19.1831 48.4959 16.6631L44.6039 11.2031C36.9599 14.8431 29.4559 23.1871 30.7439 33.7431C31.5559 40.4071 35.3919 44.8031 40.8519 44.8031C43.2319 44.8031 45.2199 44.1031 46.7879 42.7031C48.3559 41.3031 49.1119 39.3991 49.1119 37.0191Z" fill="#FF8A65"/>
</svg>
