<svg width="24" height="24" viewBox="0 0 24 24" fill="none" xmlns="http://www.w3.org/2000/svg">
<path d="M10.0659 4.03626C9.7467 4.1364 9.45566 4.39615 9.31796 4.69346C9.27101 4.7936 9.20842 5.069 9.14583 5.41951C9.09263 5.7262 9.02691 6.03603 8.99562 6.10801C8.85792 6.41783 8.56061 6.62125 8.2101 6.64629C8.0192 6.6588 7.97539 6.64629 7.44337 6.446C6.89257 6.23945 6.87379 6.23319 6.58275 6.23319C6.16965 6.23319 5.97875 6.31143 5.70648 6.58682C5.53122 6.76521 5.40917 6.95611 4.83647 7.96069C4.46718 8.60224 4.14171 9.17808 4.11042 9.2438C3.95394 9.56614 3.96646 10.0011 4.14171 10.3423C4.25437 10.5645 4.33261 10.6427 4.82395 11.0495C5.34658 11.4814 5.45298 11.641 5.45298 12.004C5.45298 12.3671 5.34658 12.5267 4.82395 12.9586C4.33261 13.3654 4.25437 13.4468 4.14171 13.6658C4.01653 13.9099 3.97272 14.1822 4.01653 14.4388C4.06034 14.7017 4.04782 14.6767 4.83647 16.0474C5.40917 17.052 5.53122 17.2429 5.70648 17.4213C5.97875 17.6967 6.16965 17.7749 6.58275 17.7749C6.87379 17.7749 6.89257 17.7686 7.44337 17.5621C7.97539 17.3618 8.0192 17.3493 8.2101 17.3618C8.56061 17.3868 8.85792 17.5903 8.99562 17.9001C9.02691 17.9721 9.09263 18.2819 9.14583 18.5886C9.20842 18.9453 9.27101 19.2145 9.32109 19.3178C9.42123 19.5368 9.6935 19.8091 9.92196 19.9155L10.1035 20H11.7778H13.4521L13.6336 19.9155C13.862 19.8091 14.1343 19.5368 14.2345 19.3178C14.2845 19.2145 14.3471 18.9453 14.4097 18.5886C14.4629 18.2819 14.5286 17.9721 14.5599 17.9001C14.6976 17.5903 14.9949 17.3868 15.3454 17.3618C15.5363 17.3493 15.5802 17.3618 16.1122 17.5621C16.663 17.7686 16.6817 17.7749 16.9728 17.7749C17.3859 17.7749 17.5768 17.6967 17.8491 17.4213C18.0243 17.2429 18.1464 17.052 18.7191 16.0537C19.0852 15.4152 19.4107 14.8363 19.442 14.7674C19.5985 14.4482 19.586 14.0038 19.4138 13.669C19.3012 13.4436 19.2229 13.3654 18.7316 12.9586C18.209 12.5267 18.1026 12.3671 18.1026 12.004C18.1026 11.6567 18.2152 11.472 18.6471 11.1215C19.3199 10.5707 19.4733 10.3704 19.539 9.9542C19.5766 9.71636 19.539 9.44096 19.442 9.24067C19.4107 9.17182 19.0852 8.59285 18.7191 7.95443C18.1464 6.95611 18.0243 6.76521 17.8491 6.58682C17.5768 6.31143 17.3859 6.23319 16.9728 6.23319C16.6817 6.23319 16.663 6.23945 16.1122 6.446C15.5802 6.64629 15.5363 6.6588 15.3454 6.64629C14.9949 6.62125 14.6976 6.41783 14.5599 6.10801C14.5286 6.03603 14.4629 5.7262 14.4097 5.41638C14.3346 4.98763 14.2908 4.80612 14.2188 4.65903C14.1061 4.43058 13.8746 4.20838 13.6242 4.08946L13.4521 4.00809L11.8247 4.00183C10.5416 3.99557 10.1692 4.00496 10.0659 4.03626ZM13.1516 5.7043C13.2361 6.23632 13.33 6.56179 13.474 6.81841C13.862 7.50691 14.5975 7.93565 15.3924 7.93565C15.7335 7.93565 15.9807 7.87619 16.5534 7.66338L16.9634 7.50691L17.6143 8.63354C18.1526 9.56614 18.2559 9.7633 18.2215 9.79459C18.1964 9.8165 18.0181 9.96359 17.8272 10.1232C17.3734 10.4956 17.22 10.6709 17.0479 11.0182C16.8852 11.3468 16.8163 11.6348 16.8163 12.004C16.8163 12.3733 16.8852 12.6612 17.0479 12.9898C17.22 13.3372 17.3734 13.5125 17.8272 13.8849C18.0181 14.0445 18.1964 14.1916 18.2215 14.2135C18.2559 14.2448 18.1526 14.442 17.6143 15.3746L16.9634 16.5012L16.5534 16.3447C15.9807 16.1319 15.7335 16.0724 15.3924 16.0724C14.4254 16.0724 13.5898 16.6827 13.2987 17.6059C13.258 17.7342 13.1923 18.0472 13.1516 18.3007L13.0797 18.7638H11.7778H10.4759L10.4039 18.3038C10.3632 18.0472 10.2975 17.7342 10.2568 17.6059C9.96577 16.6827 9.13018 16.0724 8.16316 16.0724C7.82204 16.0724 7.57481 16.1319 7.0021 16.3447L6.59213 16.5012L5.94119 15.3746C5.40604 14.4451 5.29964 14.2448 5.33406 14.2135C5.3591 14.1916 5.53748 14.0445 5.72838 13.8849C6.18217 13.5125 6.33551 13.3372 6.50764 12.9898C6.67037 12.6612 6.73922 12.3733 6.73922 12.004C6.73922 11.6348 6.67037 11.3468 6.50764 11.0182C6.33551 10.6709 6.18217 10.4956 5.72838 10.1232C5.53748 9.96359 5.3591 9.8165 5.33406 9.79459C5.29964 9.7633 5.40604 9.56301 5.94119 8.63354L6.59213 7.51004L7.03966 7.6759C7.66869 7.91062 7.84082 7.94504 8.25705 7.92626C8.86417 7.90123 9.35238 7.67903 9.77487 7.22838C10.1316 6.8497 10.2787 6.49294 10.4039 5.7043L10.4759 5.24426H11.7778H13.0797L13.1516 5.7043Z" fill="#F5ECE9"/>
<path d="M11.1625 9.01613L11.1625 9.01614C9.72377 9.32422 8.72969 10.5465 8.72969 12.0029C8.72969 13.4903 9.78576 14.7494 11.2451 15.0049C13.1206 15.3313 14.8262 13.9026 14.8262 12.0029C14.8262 10.5248 13.7918 9.27797 12.332 9.00387L12.3318 9.00383C11.9973 8.93938 11.4908 8.94556 11.1625 9.01613ZM13.0078 10.6854C13.7527 11.3864 13.7902 12.4942 13.0955 13.2328L10.548 13.3204C9.76564 12.5819 9.76564 11.4208 10.548 10.6854C11.0174 10.2441 11.6434 10.0845 12.2474 10.2535C12.5666 10.3411 12.7543 10.4475 13.0078 10.6854ZM12.2608 10.2053C12.5881 10.2952 12.7829 10.4058 13.042 10.6489L13.0421 10.649C13.8068 11.3686 13.8458 12.5081 13.1319 13.2671L13.1318 13.2671C12.409 14.0317 11.2727 14.0708 10.5138 13.3568L10.5137 13.3568C9.71045 12.5985 9.71034 11.4042 10.5138 10.6489C10.9955 10.1961 11.6393 10.0315 12.2608 10.2053Z" fill="#F5ECE9" stroke="#1F201F" stroke-width="0.1"/>
</svg>
