<svg width="48" height="48" viewBox="0 0 48 48" fill="none" xmlns="http://www.w3.org/2000/svg">
<path d="M23.9267 4.30503L23.5982 4.61789L23.5591 18.1333C23.52 30.9839 23.5121 31.6721 23.3714 32.0789C22.6987 34.089 21.0328 35.3639 19.0774 35.3639C16.6762 35.356 14.6505 33.3225 14.6427 30.8978C14.6427 30.3425 14.8929 29.3648 15.1667 28.8486C15.284 28.6218 15.6438 28.176 15.9723 27.8475C16.8483 26.9637 17.607 26.6352 19.1243 26.4787C19.445 26.4474 19.6405 26.3771 19.8048 26.2363C20.2819 25.8374 20.2741 25.9156 20.2741 22.13C20.2741 18.188 20.2897 18.2897 19.6405 17.9377C19.3199 17.7657 19.2416 17.7579 18.4751 17.797C15.7533 17.9612 13.3756 18.8137 11.256 20.3624C10.904 20.6205 10.2079 21.2462 9.71517 21.7468C7.92407 23.5535 6.74303 25.7435 6.17989 28.348C6.03129 29.0363 6.00782 29.3883 6 30.9056C6 32.4543 6.02346 32.7671 6.17989 33.5024C6.57096 35.3247 7.36093 37.1471 8.36989 38.5706C9.04253 39.517 10.4895 40.964 11.4359 41.6366C12.8594 42.6534 14.6583 43.4277 16.465 43.8266C17.169 43.983 17.4818 44.0065 19.1009 43.9987C21.1579 43.9987 21.6819 43.9205 23.3088 43.3808C27.1647 42.0903 30.3089 38.9226 31.5682 35.051C32.2017 33.08 32.2408 32.6029 32.2408 25.6027C32.2408 22.3256 32.2565 19.6428 32.2721 19.6428C32.2878 19.6428 32.6319 19.7992 33.0308 19.987C34.9236 20.8786 37.4108 21.4417 39.4522 21.4417C40.2812 21.4417 40.5706 21.3244 40.8444 20.8786C40.993 20.6283 41.0008 20.4719 41.0008 17.1009C41.0008 13.7533 40.993 13.5656 40.8444 13.3309C40.5941 12.9164 40.3673 12.8225 39.4678 12.7522C38.5292 12.6739 37.5985 12.4549 36.8242 12.1264C35.0409 11.3678 33.3749 9.60795 32.7101 7.77774C32.4442 7.02689 32.2408 5.98664 32.2408 5.33746C32.2408 4.8056 32.0609 4.42236 31.7012 4.17989L31.4352 4H27.8452H24.2552L23.9267 4.30503ZM29.9961 7.06599C30.4732 9.5141 31.8576 11.7276 33.8442 13.2136C34.9314 14.027 36.6677 14.7701 38.0521 15.0282L38.5762 15.122V17.0539V18.9936L38.0912 18.9232C35.9873 18.6495 34.0163 17.9221 32.1861 16.7333C31.3179 16.1701 31.005 16.0997 30.481 16.3578C29.8084 16.6863 29.8631 16.0371 29.8084 24.6485C29.7693 32.0163 29.7614 32.2979 29.605 33.0174C29.1201 35.1996 28.1972 36.8968 26.6485 38.4611C24.9669 40.1506 22.9568 41.1752 20.626 41.5428C19.8204 41.6679 18.2014 41.6523 17.3254 41.4958C13.9544 40.9249 11.0292 38.7583 9.48053 35.6767C8.7766 34.2845 8.46374 33.0174 8.40899 31.328C8.35424 29.8498 8.47939 28.919 8.90174 27.6363C10.1766 23.7412 13.4147 21.0116 17.5992 20.3155L17.8494 20.2685V22.2161V24.1558L17.3254 24.2966C13.1331 25.3994 11.0057 30.1157 12.9454 33.9951C13.8683 35.8488 15.6594 37.2253 17.6852 37.6477C18.7254 37.8667 20.0238 37.812 21.0171 37.5147C22.816 36.9829 24.3099 35.7549 25.1546 34.1202C25.6005 33.2442 25.8038 32.5716 25.9055 31.6018C25.9524 31.0934 25.9837 26.4787 25.9837 18.5791V6.34642H27.9234H29.8553L29.9961 7.06599Z" fill="#FF8A65"/>
</svg>
