<svg width="48" height="48" viewBox="0 0 48 48" fill="none" xmlns="http://www.w3.org/2000/svg">
<path d="M4.00083 4.09375C4.03208 4.14062 7.46177 9.14062 11.6258 15.1953C15.7821 21.25 19.1883 26.2188 19.1883 26.2344C19.1883 26.25 5.13364 42.6172 4.04771 43.8594C3.93833 43.9922 4.02427 44 5.71958 44H7.51646L14.1571 36.2734L20.8055 28.5547L26.1102 36.2734L31.4149 44H37.2977C41.9852 44 43.1727 43.9766 43.118 43.8984C43.0868 43.8516 39.5555 38.6953 35.2665 32.4531C30.9696 26.2109 27.4461 21.0625 27.4227 21.0078C27.3915 20.9141 29.2899 18.6875 39.3211 7.02344L41.9305 4H40.1336H38.3368L32.0633 11.2969C28.6102 15.3047 25.7665 18.5781 25.743 18.5625C25.7196 18.5547 23.454 15.2656 20.704 11.2734L15.7118 4H9.82896C5.28989 4 3.96177 4.02344 4.00083 4.09375ZM25.868 23.6641C32.3993 33.0156 37.8758 40.8516 38.0399 41.0859L38.3368 41.5H35.7352L33.1336 41.4922L21.2586 24.5C14.7274 15.1484 9.25083 7.3125 9.08677 7.07812L8.78208 6.65625H11.3915L13.993 6.66406L25.868 23.6641Z" fill="#FF8A65"/>
</svg>
