<svg width="48" height="48" viewBox="0 0 48 48" fill="none" xmlns="http://www.w3.org/2000/svg">
<path d="M5.00099 34.0078C3.60384 27.4143 3.60384 20.6013 5.00099 14.0078C5.18457 13.3382 5.53927 12.728 6.03021 12.237C6.52115 11.7461 7.13142 11.3914 7.80101 11.2078C18.528 9.43073 29.4742 9.43073 40.2012 11.2078C40.8707 11.3914 41.481 11.7461 41.972 12.237C42.4629 12.728 42.8176 13.3382 43.0012 14.0078C44.3983 20.6013 44.3983 27.4143 43.0012 34.0078C42.8176 34.6774 42.4629 35.2877 41.972 35.7786C41.481 36.2695 40.8707 36.6242 40.2012 36.8078C29.4742 38.5853 18.5279 38.5853 7.80101 36.8078C7.13142 36.6242 6.52115 36.2695 6.03021 35.7786C5.53927 35.2877 5.18457 34.6774 5.00099 34.0078Z" stroke="#FF8A65" stroke-width="2" stroke-linecap="round" stroke-linejoin="round"/>
<path d="M20 30L30 24L20 18V30Z" stroke="#FF8A65" stroke-width="2" stroke-linecap="round" stroke-linejoin="round"/>
</svg>
